<?xml version="1.0" encoding="utf-8"?>
<!-- Generator: Adobe Illustrator 26.4.1, SVG Export Plug-In . SVG Version: 6.00 Build 0)  -->
<svg version="1.1" id="Capa_1" xmlns="http://www.w3.org/2000/svg" xmlns:xlink="http://www.w3.org/1999/xlink" x="0px" y="0px"
	 viewBox="0 0 5669.3 5669.3" style="enable-background:new 0 0 5669.3 5669.3;" xml:space="preserve">
<style type="text/css">
	.st0{fill:#D2A866;}
	.st1{fill:#120948;}
	.st2{fill:#FFFFFF;}
	.st3{fill:#ED1B24;}
	.st4{fill:#FFFFFD;}
</style>
<g>
	<path class="st0" d="M4186.3,339.9c-55.7,53-284.6,258.4-641.2,270.9c-11.4,0.4-22.8,0.6-34,0.6c-381.3,0-629.8-227.3-676.5-271.5
		c-46.7,44.3-295.3,271.5-676.5,271.5c-11.2,0-22.5-0.2-34-0.6c-356.6-12.6-585.5-217.9-641.2-270.9l-764.6,785.7
		c273.5,346.7,436,669.9,406.2,952.4c-16.4,155.5-113.6,285.4-189.1,417.1c-112.8,196.9-209,403.9-283.3,618.3
		c-481.1,1387.3,588,1742.2,1124.4,1882.1c435.6,113.7,904.3,62.6,1058.1,333.9c153.8-271.3,622.5-220.2,1058.1-333.9
		c536.4-140,1605.5-494.8,1124.4-1882.1c-74.4-214.4-170.5-421.5-283.3-618.3c-75.5-131.7-172.7-261.6-189.1-417.1
		c-29.8-282.5,132.6-605.7,406.2-952.4L4186.3,339.9L4186.3,339.9z"/>
	<path class="st1" d="M4946.3,3506.2c-18.4-106-48.5-219.4-89.3-337.3c-68.8-198.3-159.7-396.6-270.2-589.6
		c-13.4-23.4-27.8-47.1-43-72.1c-47.6-78.5-99.5-164.1-133.5-261.8H1259c-34,97.6-85.9,183.2-133.5,261.8
		c-15.2,25-29.5,48.7-43,72.1c-110.6,193-201.5,391.4-270.2,589.6c-40.9,117.8-70.9,231.3-89.3,337.3
		c-17.1,98.2-24.5,192.4-22.2,279.9c2.1,80.5,12.6,157.5,31.2,228.8c17.1,65.9,41.6,128.9,72.9,187.3c24.5,45.8,53.7,90,87,131.5
		c31.7,39.5,67.8,77.7,107.6,113.4c73,65.8,161.1,126.2,261.6,179.7c193.1,102.7,399.9,163.3,558.4,204.7
		c128.1,33.4,262.6,52,392.7,70c151.4,20.9,294.5,40.6,421.3,82.3c78.4,25.8,145.3,58.5,201.3,98.9c56-40.4,122.9-73.2,201.3-98.9
		c126.8-41.6,269.8-61.4,421.3-82.3c130.1-17.9,264.6-36.5,392.7-70c158.6-41.4,365.3-102,558.4-204.7
		c100.6-53.5,188.6-113.9,261.6-179.7c39.7-35.8,75.9-73.9,107.6-113.4c33.3-41.5,62.5-85.8,87-131.5
		c31.2-58.4,55.7-121.5,72.9-187.3c18.5-71.3,29-148.3,31.2-228.8C4970.9,3698.5,4963.4,3604.4,4946.3,3506.2z"/>
	<path class="st2" d="M3502.9,2051.2V780.9l0,0c-299.8-2.1-528.3-121.2-668.2-221.9c-140,100.8-368.4,219.8-668.2,221.9l-0.1,0
		v1270.3L3502.9,2051.2L3502.9,2051.2z"/>
	<g>
		<g>
			<path class="st3" d="M2166.4,2051.2V780.9l0.1,0c-2.7,0-5.5,0-8.2,0c-13.2,0-26.7-0.2-39.9-0.7
				c-274.3-9.7-486.2-116.8-621.5-211.4l-555.3,570.6c251.5,346.6,368.1,646.4,355.1,911.9H2166.4z"/>
			<path class="st3" d="M4727.8,1139.3l-555.3-570.6c-135.2,94.6-347.2,201.7-621.5,211.4c-13.3,0.5-26.7,0.7-39.9,0.7
				c-2.8,0-5.5,0-8.2,0l0.1,0v1270.3h869.8C4359.7,1785.7,4476.4,1486,4727.8,1139.3z"/>
		</g>
	</g>
	<g>
		<g>
			<path class="st3" d="M3084.6,1104.5l9.1,177.2l-12.4,0.5c-4.7-30.1-12.4-54.9-23.1-74.6c-10.7-19.7-26.3-37-46.7-52.1
				c-16.8-12.5-36.7-21.4-59.6-26.6c-22.9-5.2-53.4-7.8-91.3-7.8h-123v322.2h32.2c32.6,0,57.1-2.1,73.6-6.4
				c16.5-4.3,29.9-12,40.3-23.1c10-10.4,17.5-22.6,22.3-36.8c4.8-14.1,8.9-35,12.1-62.6l12.4,0.5l-2.1,287.8h-12.4
				c-3.2-27.6-8-49.8-14.2-66.6c-6.3-16.8-15-31.2-26-43c-10.7-11.5-24.7-19.9-41.9-25.2c-17.2-5.4-39-8.1-65.5-8.1h-30.6v123
				c0,49.1,1.2,84.8,3.8,107.1c2.5,22.4,7.3,41.1,14.5,56.1c12.2,25.8,30.7,44.7,55.6,56.6c24.9,12,57.7,18,98.5,18
				c43,0,78.9-5.5,107.9-16.4c29-10.9,52.6-27.8,70.9-50.8c12.9-15.4,23.4-32.9,31.4-52.6c8.1-19.7,15.5-45.6,22.3-77.9l12.4,0.5
				l-7,213.7h-640.7v-12.4c20.4-1.1,37-3.9,49.7-8.6c12.7-4.6,24.1-12.2,34.1-22.5c11.1-11.5,18.7-26,22.8-43.8
				c4.1-17.7,6.2-44.8,6.2-81.4v-395.7c0-36.5-2.1-63.6-6.2-81.4s-11.7-32.3-22.8-43.8c-9.7-10.4-20.9-17.9-33.6-22.6
				c-12.7-4.6-29.5-7.5-50.2-8.6v-12.4L3084.6,1104.5L3084.6,1104.5z"/>
		</g>
		<g>
			<g>
				<path class="st2" d="M4239.1,1104.5l9.1,177.2l-12.4,0.5c-4.7-30.1-12.4-54.9-23.1-74.6c-10.7-19.7-26.3-37-46.7-52.1
					c-16.8-12.5-36.7-21.4-59.6-26.6c-22.9-5.2-53.4-7.8-91.3-7.8h-123v322.2h32.2c32.6,0,57.1-2.1,73.6-6.4
					c16.5-4.3,29.9-12,40.3-23.1c10-10.4,17.5-22.6,22.3-36.8c4.8-14.1,8.9-35,12.1-62.6l12.4,0.5l-2.1,287.8h-12.3
					c-3.2-27.6-8-49.8-14.2-66.6c-6.3-16.8-15-31.2-26-43c-10.7-11.5-24.7-19.9-41.9-25.2c-17.2-5.4-39-8.1-65.5-8.1h-30.6v123
					c0,49.1,1.2,84.8,3.8,107.1c2.5,22.4,7.3,41.1,14.5,56.1c12.2,25.8,30.7,44.7,55.6,56.6c24.9,12,57.7,18,98.5,18
					c43,0,78.9-5.5,107.9-16.4c29-10.9,52.6-27.8,70.9-50.8c12.9-15.4,23.4-32.9,31.4-52.6c8.1-19.7,15.5-45.6,22.3-77.9l12.4,0.5
					l-7,213.7h-640.7v-12.4c20.4-1.1,37-3.9,49.7-8.6c12.7-4.6,24.1-12.2,34.1-22.5c11.1-11.5,18.7-26,22.8-43.8
					c4.1-17.7,6.2-44.8,6.2-81.4v-395.7c0-36.5-2.1-63.6-6.2-81.4s-11.7-32.3-22.8-43.8c-9.7-10.4-20.9-17.9-33.6-22.6
					c-12.7-4.6-29.5-7.5-50.2-8.6v-12.4L4239.1,1104.5L4239.1,1104.5z"/>
			</g>
		</g>
		<g>
			<g>
				<path class="st2" d="M1836,1104.5v12.4c-20.4,1.1-37,3.9-49.7,8.6c-12.7,4.7-24.1,12.2-34.1,22.6c-14,14.3-22.6,34.2-25.8,59.6
					c-2.1,19-3.2,40.8-3.2,65.5v395.8c0,29.7,1.4,53.2,4.3,70.4c2.9,17.2,7.5,31,14,41.3c9.3,14.3,21.3,25,36,32
					c14.7,7,34.2,11.2,58.5,12.6v12.4h-343.1v-12.4c20.8-1.1,37.5-4,50.2-8.9c12.7-4.8,23.9-12.3,33.6-22.3
					c11.5-11.5,19.1-26,23.1-43.5c3.9-17.5,5.9-44.7,5.9-81.6v-395.8c0-36.9-2-64.1-5.9-81.6c-3.9-17.5-11.6-32-23.1-43.5
					c-9.7-10.4-20.9-17.9-33.8-22.6c-12.9-4.6-29.5-7.5-49.9-8.6v-12.4L1836,1104.5L1836,1104.5z"/>
			</g>
		</g>
	</g>
	<g>
		<path class="st2" d="M2550,2440.1h8.2v-44.9c0-12,0.3-21.5,1-28.3c0.6-6.8,2.4-12.7,5.3-17.7c2.9-5.1,7.1-9.3,12.6-12.4
			s11.6-4.8,18.3-4.8c9.5,0,18,3.6,25.7,10.7c5.1,4.7,8.3,10.5,9.7,17.4c1.4,6.8,2,16.6,2,29.1v50.9h27.4c10.6,0,18.6,2.5,24.2,7.5
			c5.6,5,8.3,11.4,8.3,19.3c0,10-4,17.1-11.9,21.1c-7.9,4-19.3,6-34.1,6h-14v137.3c0,11.7,0.4,20.6,1.2,26.9
			c0.8,6.3,3,11.4,6.6,15.3c3.6,3.9,9.3,5.9,17.4,5.9c4.4,0,10.3-0.8,17.8-2.3c7.5-1.5,13.3-2.3,17.5-2.3c6,0,11.4,2.4,16.3,7.2
			s7.2,10.8,7.2,17.9c0,12-6.6,21.2-19.7,27.6c-13.1,6.4-32,9.6-56.6,9.6c-23.3,0-41-3.9-53.1-11.8c-12-7.8-19.9-18.7-23.7-32.6
			c-3.7-13.9-5.6-32.4-5.6-55.5V2494h-9.8c-10.8,0-19-2.5-24.6-7.7c-5.7-5.1-8.5-11.6-8.5-19.4s3-14.3,8.9-19.3
			C2530.1,2442.6,2538.7,2440.1,2550,2440.1z"/>
		<path class="st2" d="M2933,2695c-18,14-35.5,24.6-52.4,31.6c-16.9,7-35.8,10.5-56.8,10.5c-19.1,0-36-3.8-50.5-11.4
			c-14.5-7.6-25.7-17.8-33.5-30.8c-7.8-13-11.8-27-11.8-42.1c0-20.4,6.5-37.8,19.4-52.3c13-14.4,30.7-24.1,53.4-29
			c4.7-1.1,16.5-3.6,35.3-7.4c18.8-3.8,34.9-7.3,48.3-10.5c13.4-3.2,27.9-7.1,43.6-11.6c-0.9-19.7-4.9-34.2-11.9-43.4
			c-7-9.2-21.6-13.8-43.6-13.8c-19,0-33.2,2.6-42.8,7.9c-9.6,5.3-17.8,13.2-24.6,23.8c-6.8,10.6-11.7,17.6-14.5,20.9
			c-2.8,3.4-8.9,5.1-18.2,5.1c-8.4,0-15.6-2.7-21.7-8.1c-6.1-5.4-9.2-12.3-9.2-20.6c0-13.1,4.6-25.9,14-38.3s23.8-22.6,43.5-30.6
			c19.7-8,44.2-12,73.6-12c32.8,0,58.6,3.9,77.4,11.6c18.8,7.8,32.1,20,39.8,36.8c7.7,16.8,11.6,39,11.6,66.8
			c0,17.5-0.1,32.4-0.1,44.6c-0.1,12.2-0.2,25.8-0.4,40.8c0,14.1,2.3,28.7,7,43.9c4.6,15.2,7,25,7,29.4c0,7.7-3.6,14.6-10.8,20.9
			c-7.2,6.3-15.4,9.4-24.5,9.4c-7.7,0-15.2-3.6-22.7-10.8C2949.3,2719.1,2941.4,2708.7,2933,2695z M2928.1,2587
			c-10.9,4-26.9,8.3-47.7,12.7c-20.9,4.5-35.3,7.8-43.4,9.8c-8,2.1-15.7,6.2-23,12.3s-10.9,14.6-10.9,25.6
			c0,11.3,4.3,20.9,12.9,28.9c8.6,7.9,19.8,11.9,33.7,11.9c14.8,0,28.4-3.2,40.9-9.7s21.6-14.8,27.5-25
			c6.7-11.3,10.1-29.9,10.1-55.8L2928.1,2587L2928.1,2587z"/>
		<path class="st2" d="M3126.7,2737.2c-11.3,0-21.1-3.6-29.3-10.9c-8.2-7.3-12.3-17.5-12.3-30.6c0-11.1,3.9-20.7,11.8-28.7
			c7.8-8,17.5-12,29-12c11.5,0,21.3,4,29.4,11.9c8.1,7.9,12.2,17.6,12.2,28.9c0,13-4.1,23.1-12.2,30.5
			C3147.1,2733.5,3137.6,2737.2,3126.7,2737.2z"/>
	</g>
	<g>
		<path class="st2" d="M2270.2,4661.6l55.2,17.5c-8.5,30.8-22.6,53.7-42.3,68.6s-44.7,22.4-75,22.4c-37.5,0-68.3-12.8-92.4-38.4
			c-24.1-25.6-36.2-60.6-36.2-105c0-47,12.1-83.5,36.4-109.4c24.3-26,56.1-39,95.7-39c34.5,0,62.6,10.2,84.1,30.6
			c12.8,12.1,22.5,29.4,28.9,52l-56.4,13.5c-3.3-14.6-10.3-26.2-20.9-34.7c-10.6-8.5-23.5-12.7-38.6-12.7
			c-20.9,0-37.9,7.5-50.9,22.5c-13,15-19.5,39.3-19.5,73c0,35.7,6.4,61.1,19.2,76.2c12.8,15.2,29.5,22.7,50.1,22.7
			c15.1,0,28.2-4.8,39.1-14.4C2257.7,4697.4,2265.5,4682.3,2270.2,4661.6z"/>
		<path class="st2" d="M2382.5,4765.4v-282.2h57v111.1h111.7v-111.1h57v282.2h-57V4642h-111.7v123.4H2382.5z"/>
		<path class="st2" d="M2673.2,4765.4v-282.2h57v282.2H2673.2z"/>
		<path class="st2" d="M2792.9,4765.4v-282.2h55.4l115.5,188.5v-188.5h52.9v282.2h-57.2l-113.8-184v184H2792.9z"/>
		<path class="st2" d="M3265.5,4661.6l55.2,17.5c-8.5,30.8-22.6,53.7-42.3,68.6s-44.7,22.4-75,22.4c-37.5,0-68.3-12.8-92.4-38.4
			c-24.1-25.6-36.2-60.6-36.2-105c0-47,12.1-83.5,36.4-109.4c24.3-26,56.1-39,95.7-39c34.5,0,62.6,10.2,84.1,30.6
			c12.8,12.1,22.5,29.4,28.9,52l-56.4,13.5c-3.3-14.6-10.3-26.2-20.9-34.7c-10.6-8.5-23.5-12.7-38.6-12.7
			c-20.9,0-37.9,7.5-50.9,22.5c-13,15-19.5,39.3-19.5,73c0,35.7,6.4,61.1,19.2,76.2c12.8,15.2,29.5,22.7,50.1,22.7
			c15.1,0,28.2-4.8,39.1-14.4C3252.9,4697.4,3260.8,4682.3,3265.5,4661.6z"/>
		<path class="st2" d="M3377.7,4765.4v-282.2h57v111.1h111.7v-111.1h57v282.2h-57V4642h-111.7v123.4H3377.7z"/>
		<path class="st2" d="M3924.6,4765.4h-62l-24.6-64.1h-112.8l-23.3,64.1h-60.4l109.9-282.2h60.3L3924.6,4765.4z M3819.7,4653.7
			l-38.9-104.7l-38.1,104.7H3819.7z"/>
	</g>
	<g>
		<path class="st4" d="M1639.7,2653c-146,421.4,525.3,708.9,663.8,1151.4l-96.3-10.5c42.1,234.8-56.5,418.3-197.2,516.3
			c-198.1,137.9-510.2,93-699.9-137c-13.1-6.3-37.3-15.7-67.7-13.6c-64.7,4.5-101.6,57-106.9,64.7c-27.7-88.6-1.4-184.3,66.2-242.3
			c89.2-76.5,202.1-46.1,210.7-43.6c5.6-77.8,56.1-144.8,127.9-170.1c65-22.9,138.2-8.4,191.2,37.6
			c-114.4,62.1-167.5,160.4-143.5,225.4c1.9,5.1,5.2,12.7,11.5,21.3c18.8,25.9,49.2,40.8,81.1,40.5c44.6-0.4,101.4-9.6,133.7-47.8
			c52-61.7,43.3-170.1-48-268.9c-353.9-383-453.2-759.3-706.1-964l84.3-12c1.4-25.4,19.1-269.8,237.8-412.4
			c223.3-145.7,459.5-56.9,481.7-48.2c11.7-9.1,70.1-52.6,150.5-42.1c104.7,13.6,152.7,106.6,156.5,114.4c-43.6-3-87.3-6-130.9-9
			c122.6,94.2,156,253.9,91.8,364.2c-69.8,119.9-222.5,126.2-231.8,126.4c-24.7,0.1-91.2-2.8-154.5-48.9
			C1652.2,2777,1641.2,2670,1639.7,2653z"/>
		<path class="st4" d="M3098.2,3504.3c-48.2-68.2-102.3-158.6-146.7-271.1c-69.2-174.9-87.1-332.1-90.3-440.3c-74.5,0-149,0-223.5,0
			c0.1,96.5-12,247.8-79,417.7c-51.3,129.9-117.7,227.6-170.8,293.6c17.6,104.7,31.1,226.9,33.1,363.3
			c2.5,166.6-12.7,313.5-33.1,435c51.1-30.8,128.7-86.9,193.6-180.9c116.2-168.1,114.1-344.2,110.4-406.1c43.1,0,86.3,0,129.4,0
			c-7.8,50.6-29.6,231.7,82.8,404.9c64.2,98.9,145.7,154.5,194.2,182.1c-15.7-115.2-26.9-247.7-27.1-394.3
			C3070.8,3757.7,3082.1,3622,3098.2,3504.3z M2683.4,3547.8l67-176.9l75.3,176.9H2683.4z"/>
		<path class="st4" d="M4609.1,3504.3c-48.2-68.2-102.3-158.6-146.7-271.1c-69.2-174.9-87.1-332.1-90.3-440.3c-74.5,0-149,0-223.5,0
			c0,96.5-12,247.8-79,417.7c-51.3,129.9-117.7,227.6-170.8,293.6c17.6,104.7,31.1,226.9,33.1,363.3c2.5,166.6-12.7,313.5-33.1,435
			c51.1-30.8,128.7-86.9,193.6-180.9c116.2-168.1,114.1-344.2,110.4-406.1c43.1,0,86.3,0,129.4,0c-7.8,50.6-29.6,231.7,82.8,404.9
			c64.2,98.9,145.7,154.5,194.2,182.1c-15.7-115.2-26.9-247.7-27.1-394.3C4581.7,3757.7,4593,3622,4609.1,3504.3z M4194.2,3547.8
			l67-176.9l75.3,176.9H4194.2z"/>
		<path class="st4" d="M3098.2,2765.9c37.9,76.1,100.6,228.1,94.8,426.7c-4.1,139.6-40.4,250.5-70,320.6
			c27.1,83.9,52.8,190.1,63.6,314.4c17.1,197-10.1,361.9-38.7,475.1c91.1,0,182.1,0,273.2,0c-19.1-72-43.7-207.3-2.3-365
			c18.8-71.5,46.5-129.7,72.2-173.8c16,47.2,31,98.5,43.8,153.7c33.6,144.4,43,275.7,42,385.2c90.3,0,180.6,0,270.9,0
			c-26.4-119.1-48.6-289.7-21.7-490.1c12.8-95.6,34.4-179.7,57.8-250.4c-28.7-65.6-57.1-149.4-72-249.1
			c-36.7-245.2,29.3-445.3,72-547.2c-45.2,26.2-143.7,91.4-214.5,216.7c-74,131.1-76.4,254.9-74.5,307
			c-25.8-80.6-92.8-250.6-259.6-388.3C3248.8,2830,3162.5,2789.4,3098.2,2765.9z"/>
	</g>
</g>
</svg>
